<?xml version="1.0" standalone="no"?>
<!DOCTYPE svg PUBLIC "-//W3C//DTD SVG 20010904//EN"
 "http://www.w3.org/TR/2001/REC-SVG-20010904/DTD/svg10.dtd">
<svg version="1.0" xmlns="http://www.w3.org/2000/svg"
 width="1024.000000pt" height="1024.000000pt" viewBox="0 0 1024.000000 1024.000000"
 preserveAspectRatio="xMidYMid meet">

<g transform="translate(0.000000,1024.000000) scale(0.100000,-0.100000)"
fill="#000000" stroke="none">
<path d="M0 5120 l0 -5120 5120 0 5120 0 0 5120 0 5120 -5120 0 -5120 0 0
-5120z m5331 2045 c561 -59 1024 -299 1336 -690 197 -247 326 -556 379 -907
21 -137 24 -475 6 -618 -78 -599 -351 -1055 -812 -1356 -271 -177 -556 -277
-941 -330 -145 -21 -1421 -33 -1564 -15 -137 17 -206 70 -241 187 -20 68 -21
3472 -1 3551 24 90 77 147 164 179 57 20 1482 20 1674 -1z"/>
<path d="M4240 5210 l0 -1342 468 5 c434 4 474 5 564 26 448 99 787 393 922
795 60 179 70 259 71 531 0 226 -2 260 -23 355 -70 311 -218 552 -444 720
-102 77 -165 112 -285 159 -200 80 -244 85 -790 89 l-483 3 0 -1341z"/>
</g>
</svg>
